<?xml version="1.0"?>
<svg xmlns="http://www.w3.org/2000/svg" xmlns:xlink="http://www.w3.org/1999/xlink" version="1.1" id="Capa_1" x="0px" y="0px" viewBox="0 0 512 512" style="enable-background:new 0 0 512 512;" xml:space="preserve" width="512px" height="512px" class=""><g><g>
	<g>
		<path d="M444.527,229.408h-33.611l-31.244-73.597c-12.442-29.307-41.055-48.244-72.894-48.244h-50.933c-5.522,0-10,4.478-10,10    c0,5.522,4.478,10,10,10h50.933c23.798,0,45.184,14.154,54.483,36.061l27.926,65.78h-131.79v-73.221c0-5.522-4.478-10-10-10    c-5.522,0-10,4.478-10,10v73.221h-136.9v-44.091c0-31.844,25.907-57.75,57.751-57.75h20.608c5.522,0,10-4.478,10-10    c0-5.522-4.478-10-10-10h-20.608c-42.872,0-77.751,34.879-77.751,77.75v44.091H67.473C30.269,229.408,0,259.677,0,296.881V362.4    c0,5.522,4.478,10,10,10h37c5.522,0,10-4.478,10-10c0-5.522-4.478-10-10-10H20v-34.021h30.267c5.522,0,10-4.478,10-10v-36.785    c0-5.522-4.478-10-10-10h-14.51c8.413-7.569,19.534-12.185,31.715-12.185h354.42v27.932c0,5.522,4.478,10,10,10h59.144    c0.632,3.083,0.964,6.274,0.964,9.541v55.519h-18.885c-5.522,0-10,4.478-10,10c0,5.522,4.478,10,10,10H502c5.522,0,10-4.478,10-10    v-65.519C512,259.677,481.731,229.408,444.527,229.408z M40.267,281.593v16.785H20v-1.497c0-5.348,0.902-10.487,2.54-15.288    H40.267z M441.893,267.34v-17.932h2.635c15.016,0,28.416,7.015,37.121,17.932H441.893z" data-original="#000000" class="active-path" data-old_color="#e8cba6" fill="#e8cba6"/>
	</g>
</g><g>
	<g>
		<path d="M347.069,355.33c-1.859-1.86-4.439-2.931-7.069-2.931s-5.21,1.07-7.07,2.931c-1.86,1.859-2.93,4.439-2.93,7.069    c0,2.631,1.069,5.21,2.93,7.07c1.861,1.86,4.44,2.93,7.07,2.93s5.21-1.069,7.069-2.93c1.86-1.86,2.931-4.439,2.931-7.07    C350,359.769,348.93,357.189,347.069,355.33z" data-original="#000000" class="active-path" data-old_color="#e8cba6" fill="#e8cba6"/>
	</g>
</g><g>
	<g>
		<path d="M302.333,352.399h-44.936v-23.917c0-5.522-4.478-10-10-10c-5.522,0-10,4.478-10,10v23.917H185c-5.522,0-10,4.478-10,10    c0,5.522,4.478,10,10,10h117.333c5.522,0,10-4.478,10-10C312.333,356.877,307.855,352.399,302.333,352.399z" data-original="#000000" class="active-path" data-old_color="#e8cba6" fill="#e8cba6"/>
	</g>
</g><g>
	<g>
		<path d="M224.849,110.5c-1.859-1.86-4.439-2.931-7.07-2.931c-2.64,0-5.21,1.07-7.069,2.931c-1.86,1.859-2.931,4.43-2.931,7.069    c0,2.631,1.07,5.211,2.931,7.07c1.859,1.861,4.43,2.93,7.069,2.93c2.631,0,5.2-1.069,7.07-2.93c1.86-1.859,2.93-4.439,2.93-7.07    C227.779,114.929,226.71,112.359,224.849,110.5z" data-original="#000000" class="active-path" data-old_color="#e8cba6" fill="#e8cba6"/>
	</g>
</g><g>
	<g>
		<path d="M229.002,276.003c-0.022,0-0.046,0-0.068,0l-22.434,0.15c-5.522,0.037-9.97,4.544-9.933,10.067    c0.037,5.5,4.507,9.933,9.999,9.933c0.022,0,0.045,0,0.068,0l22.434-0.15c5.522-0.037,9.97-4.544,9.933-10.067    C238.964,280.436,234.494,276.003,229.002,276.003z" data-original="#000000" class="active-path" data-old_color="#e8cba6" fill="#e8cba6"/>
	</g>
</g><g>
	<g>
		<path d="M116.935,320.165c-23.232,0-42.134,18.901-42.134,42.134c0,23.233,18.901,42.134,42.134,42.134    c23.233,0,42.135-18.901,42.135-42.134C159.07,339.066,140.168,320.165,116.935,320.165z M116.935,384.433    c-12.205,0-22.134-9.929-22.134-22.134s9.929-22.134,22.134-22.134s22.135,9.929,22.135,22.134S129.14,384.433,116.935,384.433z" data-original="#000000" class="active-path" data-old_color="#e8cba6" fill="#e8cba6"/>
	</g>
</g><g>
	<g>
		<path d="M411.193,320.165c-23.232,0-42.134,18.901-42.134,42.134c0,23.233,18.901,42.134,42.134,42.134    c23.233,0,42.135-18.901,42.135-42.134C453.328,339.066,434.427,320.165,411.193,320.165z M411.193,384.433    c-12.205,0-22.134-9.929-22.134-22.134s9.929-22.134,22.134-22.134s22.135,9.929,22.135,22.134S423.398,384.433,411.193,384.433z" data-original="#000000" class="active-path" data-old_color="#e8cba6" fill="#e8cba6"/>
	</g>
</g></g> </svg>
