<?xml version="1.0"?>
<svg xmlns="http://www.w3.org/2000/svg" xmlns:xlink="http://www.w3.org/1999/xlink" version="1.1" id="Capa_1" x="0px" y="0px" viewBox="0 0 512 512" style="enable-background:new 0 0 512 512;" xml:space="preserve" width="512px" height="512px"><g><g>
	<g>
		<path d="M432.378,256.811c-0.079-0.02-0.158-0.039-0.237-0.057l-14.984-3.341l13.441-7.684c0.186-0.106,0.369-0.219,0.547-0.337    c11.784-7.781,19.529-21.711,20.718-37.264c0.02-0.254,0.029-0.508,0.029-0.763v-28.343c4.181-7.672,15.565-31.7,15.565-65.906    c0-42.682-34.424-86.829-92.03-86.829c-19.169,0-35.167,4.819-48.709,14.706c-16.192-4.377-34.044,3.757-48.897,22.683    c-14.979,19.083-18.344,40.633-17.131,59.359c-14.501-46.067-57.612-79.57-108.405-79.57h-5.178    c-17.599,0-34.473,3.917-50.154,11.643C92,57.551,89.962,63.545,92.403,68.5c2.441,4.955,8.436,6.992,13.39,4.551    c12.908-6.359,26.808-9.584,41.315-9.584h5.178c51.622,0,93.619,41.997,93.619,93.618v39.485c0,9.452-1.981,18.528-5.842,27.025    c-6.58,1.685-12.747,4.401-18.341,7.944c2.832-5.39,4.624-11.503,5.116-17.939c0.02-0.254,0.029-0.508,0.029-0.763v-64.422    c0-3.766-2.116-7.213-5.474-8.917c-3.357-1.705-7.388-1.378-10.429,0.845c-8.578,6.273-18.775,9.589-29.489,9.589    c-20.533,0-39.251-12.892-46.576-32.08c-1.336-3.5-4.516-5.959-8.238-6.372c-3.727-0.418-7.365,1.287-9.436,4.409    c-7.832,11.801-20.983,18.886-35.181,18.951c-5.505,0.025-9.954,4.495-9.954,10v67.997c0,0.254,0.01,0.509,0.029,0.762    c1.038,13.575,7.891,25.797,18.334,32.693c0.175,0.115,0.354,0.226,0.537,0.33l14.616,8.381v5.609l-3.446-0.711    c-28.669-7.601-48.671-33.606-48.671-63.332v-39.485c0-13.848,2.949-27.174,8.765-39.609c2.34-5.003,0.181-10.955-4.822-13.295    c-5.002-2.339-10.955-0.181-13.294,4.822c-7.066,15.107-10.648,31.284-10.648,48.082v39.485c0,25.889,11.638,49.606,30.498,65.478    C25.628,278.252,0,315.966,0,358.738v116.975c0,5.508,4.454,9.974,9.957,9.998c0,0,0.001,0.001,0.001,0.002h196.909    c5.523,0,10-4.478,10-10c0-5.522-4.477-10-10-10h-33.403v-52.909c0-24.321,16.422-45.407,39.958-51.334l20.106-4.28    c6.999,2.618,14.57,4.059,22.473,4.059c7.794,0,15.267-1.396,22.185-3.945l20.432,4.176c23.516,5.94,39.92,27.017,39.92,51.324    v52.909h-35.589c-5.523,0-10,4.478-10,10c0,5.522,4.477,10,10,10H502c5.523,0,10-4.478,10-10V358.749    C512,310.387,479.258,268.468,432.378,256.811z M101.245,229.449c-5.038-3.451-8.517-9.921-9.155-17.023v-58.424    c11.731-1.938,22.606-7.167,31.396-15.029c12.807,18.976,34.554,30.96,57.99,30.96c8.813,0,17.382-1.607,25.392-4.721v47.214    c-0.64,7.149-4.071,13.617-9.03,17.021l-40.231,22.998c-0.187,0.106-0.369,0.219-0.548,0.337c-4.815,3.182-10.341,3.183-15.16,0    c-0.175-0.115-0.354-0.226-0.537-0.33L101.245,229.449z M203.047,249.505c-4.538,6.591-7.869,14.066-9.696,22.11v-16.567    L203.047,249.505z M173.351,266.481v23.718c-13.861,11.254-33.883,11.254-47.744,0v-23.727l5.555,3.185    c5.665,3.664,11.991,5.497,18.316,5.497c6.324,0,12.648-1.831,18.311-5.494L173.351,266.481z M209.084,341.943    c-0.111,0.026-0.221,0.051-0.331,0.079c-32.553,8.094-55.289,37.201-55.289,70.782v52.909H77.849v-64.647c0-5.522-4.477-10-10-10    s-10,4.478-10,10v64.647H20V358.738c0-39.143,26.493-73.068,64.427-82.502c0.644-0.16,1.256-0.382,1.835-0.653    c3.571,1.477,7.268,2.737,11.089,3.734c0.167,0.044,0.336,0.083,0.505,0.118l7.615,1.571c0.045,0.009,0.09,0.012,0.136,0.021    v13.601c0,2.652,1.054,5.196,2.929,7.071c11.288,11.287,26.115,16.931,40.943,16.931s29.655-5.644,40.943-16.931    c0.536-0.536,0.997-1.132,1.393-1.764c0.717,16.227,7.498,30.9,18.129,41.825L209.084,341.943z M293.554,76.025    c10.529-13.416,21.963-18.92,30.59-14.723c3.578,1.742,7.849,1.195,10.874-1.389c6.844-5.85,18.479-13.625,40.41-13.625    c45.087,0,72.03,33.979,72.03,66.829c0,14.732-2.466,27.291-5.327,36.905c-7.302-11.246-21.087-24.319-45.702-24.319    c-19.705,0-34.373-6.36-46.161-20.017c-1.917-2.222-4.69-3.466-7.569-3.466c-0.571,0-1.147,0.049-1.721,0.149    c-3.464,0.604-6.356,2.984-7.616,6.268c-1.559,4.063-10.777,8.553-17.507,11.83c-6.245,3.042-12.144,5.915-16.538,9.8    c-5.954,5.262-10.684,10.183-14.39,14.499C279.798,127.061,275.901,98.518,293.554,76.025z M265.717,150.638    c2.609,8.842,5.489,15.382,6.861,18.28v38.448c0,0.255,0.01,0.509,0.029,0.763c0.456,5.963,1.901,11.689,4.172,16.931    c-4.678-1.604-9.594-2.689-14.685-3.171c2.527-8.139,3.81-16.611,3.81-25.319v-39.485    C265.904,154.921,265.837,152.772,265.717,150.638z M256,241.593c20.615,0,37.982,14.167,42.878,33.277    c-0.543,0.243-1.075,0.53-1.583,0.878c-5.433,3.723-11.891,5.69-18.676,5.69c-12.976,0-24.749-7.498-29.295-18.658    c-1.377-3.382-4.489-5.744-8.117-6.162c-3.63-0.418-7.194,1.176-9.305,4.155c-4.062,5.736-10.499,9.526-17.714,10.594    C220.201,254.057,236.667,241.593,256,241.593z M300.259,297.076c0,24.357-19.854,44.173-44.258,44.173    s-44.259-19.815-44.259-44.173v-5.426c9.688-0.347,18.884-3.571,26.388-9.076c9.576,11.639,24.512,18.864,40.49,18.864    c7.571,0,14.91-1.556,21.639-4.541V297.076z M292.578,206.959v-39.016c2.431-3.928,8.449-12.495,19.985-22.689    c2.355-2.082,7.284-4.482,12.05-6.805c6.458-3.146,13.432-6.542,18.933-11.209c14.252,12.406,31.661,18.464,52.883,18.464    c12.786,0,22.231,4.948,28.874,15.127c4.429,6.787,6.127,13.82,6.59,16.095v30.034c-0.795,9.174-5.08,17.198-11.527,21.581    l-47.62,27.224c-0.187,0.106-0.369,0.219-0.548,0.337c-6.239,4.121-13.688,4.121-19.927,0c-0.175-0.115-0.354-0.226-0.537-0.33    l-47.482-27.227C297.807,224.162,293.363,215.945,292.578,206.959z M339.076,271.567l2.457,1.408    c6.4,4.15,13.552,6.227,20.703,6.227c7.149,0,14.297-2.074,20.697-6.223l3.887-2.222v19.442    c-13.861,11.254-33.883,11.254-47.744,0V271.567z M319.075,260.097v13.513c-1.152-5.945-3.129-11.596-5.801-16.839    L319.075,260.097z M492,465.713h-47.233v-64.647c0-5.522-4.477-10-10-10s-10,4.478-10,10v64.647h-66.23v-52.909    c0-33.581-22.736-62.689-55.29-70.782c-0.136-0.034-0.273-0.065-0.411-0.094l-0.786-0.161    c10.787-11.083,17.603-26.026,18.153-42.534c0.468,0.901,1.069,1.736,1.8,2.467c11.289,11.289,26.113,16.932,40.942,16.932    c14.826,0,29.656-5.646,40.943-16.932c1.875-1.875,2.929-4.419,2.929-7.071V271.6l20.848,4.648    C465.549,285.725,492,319.633,492,358.749V465.713z" data-original="#000000" class="active-path" data-old_color="#e8cba6" fill="#e8cba6"/>
	</g>
</g><g>
	<g>
		<path d="M263.633,468.641c-1.87-1.86-4.44-2.93-7.08-2.93c-2.63,0-5.21,1.07-7.07,2.93c-1.86,1.86-2.93,4.44-2.93,7.07    s1.07,5.21,2.93,7.07c1.87,1.869,4.44,2.93,7.07,2.93s5.21-1.061,7.08-2.93c1.86-1.86,2.92-4.44,2.92-7.07    S265.493,470.501,263.633,468.641z" data-original="#000000" class="active-path" data-old_color="#e8cba6" fill="#e8cba6"/>
	</g>
</g><g>
	<g>
		<path d="M395.811,179.405c-2.895-4.704-9.055-6.171-13.757-3.275l-0.531,0.328c-4.691,2.915-6.131,9.08-3.217,13.771    c1.894,3.049,5.161,4.724,8.503,4.724c1.802,0,3.625-0.486,5.268-1.507l0.458-0.283    C397.239,190.268,398.705,184.109,395.811,179.405z" data-original="#000000" class="active-path" data-old_color="#e8cba6" fill="#e8cba6"/>
	</g>
</g><g>
	<g>
		<path d="M343.144,179.405c-2.894-4.704-9.054-6.171-13.757-3.275l-0.531,0.328c-4.691,2.915-6.131,9.08-3.217,13.771    c1.894,3.049,5.161,4.724,8.503,4.724c1.802,0,3.625-0.486,5.268-1.507l0.458-0.283    C344.572,190.268,346.038,184.109,343.144,179.405z" data-original="#000000" class="active-path" data-old_color="#e8cba6" fill="#e8cba6"/>
	</g>
</g><g>
	<g>
		<path d="M185.174,184.405c-2.896-4.704-9.055-6.171-13.758-3.275l-0.531,0.328c-4.691,2.915-6.131,9.08-3.217,13.771    c1.895,3.049,5.161,4.724,8.504,4.724c1.802,0,3.625-0.486,5.268-1.507l0.458-0.283    C186.602,195.268,188.068,189.109,185.174,184.405z" data-original="#000000" class="active-path" data-old_color="#e8cba6" fill="#e8cba6"/>
	</g>
</g><g>
	<g>
		<path d="M132.513,184.417c-2.886-4.707-9.044-6.181-13.752-3.294l-0.543,0.335c-4.691,2.915-6.131,9.08-3.217,13.771    c1.894,3.049,5.161,4.724,8.503,4.724c1.802,0,3.625-0.486,5.268-1.507l0.448-0.276    C133.927,195.281,135.402,189.124,132.513,184.417z" data-original="#000000" class="active-path" data-old_color="#e8cba6" fill="#e8cba6"/>
	</g>
</g><g>
	<g>
		<path d="M162.249,215.784c-2.442-4.536-7.883-6.426-12.552-4.532c-4.668-1.894-10.11-0.004-12.552,4.532    c-2.618,4.863-0.798,10.928,4.065,13.546c2.596,1.397,5.531,2.136,8.487,2.136s5.891-0.738,8.487-2.136    C163.047,226.712,164.867,220.647,162.249,215.784z" data-original="#000000" class="active-path" data-old_color="#e8cba6" fill="#e8cba6"/>
	</g>
</g><g>
	<g>
		<path d="M80.831,76.729c-3.932-3.879-10.293-3.806-14.173,0.125c-3.905,3.905-3.905,10.237,0,14.143    c1.953,1.951,4.513,2.928,7.072,2.928c2.559,0,5.119-0.977,7.071-2.929l0.155-0.156C84.835,86.908,84.762,80.609,80.831,76.729z" data-original="#000000" class="active-path" data-old_color="#e8cba6" fill="#e8cba6"/>
	</g>
</g><g>
	<g>
		<path d="M374.813,215.784c-2.442-4.536-7.884-6.426-12.552-4.532c-4.668-1.894-10.11-0.004-12.552,4.532    c-2.618,4.863-0.798,10.928,4.065,13.546c2.596,1.397,5.531,2.136,8.487,2.136s5.891-0.738,8.487-2.136    C375.611,226.712,377.431,220.647,374.813,215.784z" data-original="#000000" class="active-path" data-old_color="#e8cba6" fill="#e8cba6"/>
	</g>
</g></g> </svg>
