<?xml version="1.0" encoding="utf-8"?>
<!-- Generator: Adobe Illustrator 16.0.0, SVG Export Plug-In . SVG Version: 6.00 Build 0)  -->
<!DOCTYPE svg PUBLIC "-//W3C//DTD SVG 1.1//EN" "http://www.w3.org/Graphics/SVG/1.1/DTD/svg11.dtd">
<svg version="1.1" id="Layer_1" xmlns="http://www.w3.org/2000/svg" xmlns:xlink="http://www.w3.org/1999/xlink" x="0px" y="0px"
	 width="100px" height="100px" viewBox="0 0 100 100" enable-background="new 0 0 100 100" xml:space="preserve">
<path fill="#343930" d="M99,70.644C99,79.124,92.093,86,83.499,86H17.146C8.553,86,1,79.124,1,70.644V44.03
	C1,35.549,8.553,29,17.146,29h66.353C92.093,29,99,35.549,99,44.03V70.644z"/>
<path fill="#343930" d="M78,40.523C78,49.004,70.432,56,61.838,56H40.777C32.183,56,26,49.004,26,40.523v-5.237
	C26,26.805,32.183,20,40.777,20h21.061C70.432,20,78,26.805,78,35.286V40.523z"/>
<ellipse fill="#343930" stroke="#E8CBA6" stroke-width="4" stroke-miterlimit="10" cx="50.43" cy="57.779" rx="18.724" ry="18.479"/>
<ellipse fill="#343930" stroke="#E8CBA6" stroke-width="2" stroke-miterlimit="10" cx="82.593" cy="40.146" rx="2.57" ry="2.537"/>
<ellipse fill="#343930" stroke="#E8CBA6" stroke-width="2" stroke-miterlimit="10" cx="50.332" cy="57.686" rx="9.645" ry="9.572"/>
</svg>
