<?xml version="1.0"?>
<svg xmlns="http://www.w3.org/2000/svg" xmlns:xlink="http://www.w3.org/1999/xlink" version="1.1" id="Capa_1" x="0px" y="0px" viewBox="0 0 511.999 511.999" style="enable-background:new 0 0 511.999 511.999;" xml:space="preserve" width="512px" height="512px"><g><g>
	<g>
		<path d="M509.071,193.915l-67.252-67.254V66.464c0-3.27-1.634-6.318-4.315-8.188c-2.681-1.871-6.142-2.301-9.211-1.169    c-27.635,10.174-50.011,30.273-63.076,56.64l-41.079,62.04L68.271,54.956c-4.993-2.361-10.954-0.222-13.313,4.771    c-2.358,4.994-0.222,10.955,4.772,13.313l253.251,119.593l-11.479,17.336H134.017c-18.558,0-35.646,6.368-49.235,17.01    C48.761,225.207,20,195.348,20,158.895v-9.111c0-5.522-4.477-10-10-10s-10,4.478-10,10v9.111    c0,41.701,29.101,76.732,68.062,85.856c-8.86,12.877-14.061,28.458-14.061,45.237v158.017c0,5.522,4.477,10,10,10h49.056    c5.523,0,10-4.478,10-10v-77.668h132.197c5.523,0,10-4.478,10-10c0-5.522-4.477-10-10-10H135.866l9.234-9.234    c3.906-3.905,3.906-10.237,0-14.143c-3.904-3.904-10.237-3.904-14.142,0l-24.973,24.973c-1.875,1.876-2.929,4.419-2.929,7.071    v79.001H74.001V289.987c0-7.133,1.257-13.976,3.551-20.328h85.689c5.523,0,10-4.478,10-10c0-5.522-4.477-10-10-10H89.607    c10.986-12.087,26.827-19.688,44.41-19.688h169.607l72.649,72.649c-1.504,10.714-2.268,21.538-2.268,32.382v103.001h-29.055    V335.986c0-5.522-4.477-10-10-10s-10,4.478-10,10v112.018c0,5.522,4.477,10,10,10h49.056c5.523,0,10-4.478,10-10V335.003    c0-33.354,7.895-66.504,22.882-96.275c26.423,16.774,61.463,10.464,80.335-14.701L510,206.988    C512.985,203.005,512.589,197.435,509.071,193.915z M380.856,278.919l-60.777-60.777l9.811-14.816l56.532,56.532    C384.298,266.13,382.443,272.491,380.856,278.919z M481.222,212.025c-12.785,17.049-36.682,21.134-54.406,9.302l-8.036-5.365    c-2.34-1.562-5.229-2.067-7.961-1.39c-2.731,0.678-5.05,2.476-6.388,4.95l-2.274,4.207c-2.794,5.169-5.386,10.441-7.777,15.799    l-53.221-53.221l41.088-62.053c0.24-0.362,0.457-0.74,0.647-1.132c8.566-17.537,22.105-31.756,38.926-41.106v48.788    c0,2.652,1.054,5.195,2.929,7.071l64.048,64.051L481.222,212.025z" data-original="#000000" class="active-path" data-old_color="#e8cba6" fill="#e8cba6"/>
	</g>
</g><g>
	<g>
		<path d="M298.574,353.263c-1.86-1.86-4.44-2.93-7.07-2.93c-2.63,0-5.21,1.069-7.07,2.93c-1.86,1.86-2.93,4.44-2.93,7.07    c0,2.63,1.07,5.21,2.93,7.069c1.86,1.87,4.44,2.931,7.07,2.931c2.63,0,5.21-1.061,7.07-2.931c1.86-1.859,2.93-4.439,2.93-7.069    C301.504,357.703,300.434,355.123,298.574,353.263z" data-original="#000000" class="active-path" data-old_color="#e8cba6" fill="#e8cba6"/>
	</g>
</g><g>
	<g>
		<path d="M421.025,166.121c-1.87-1.861-4.44-2.931-7.07-2.931c-2.64,0-5.21,1.07-7.07,2.931c-1.87,1.859-2.94,4.439-2.94,7.069    c0,2.63,1.07,5.21,2.94,7.07c1.86,1.86,4.43,2.93,7.07,2.93c2.63,0,5.2-1.069,7.07-2.93c1.86-1.86,2.93-4.44,2.93-7.07    C423.955,170.56,422.885,167.98,421.025,166.121z" data-original="#000000" class="active-path" data-old_color="#e8cba6" fill="#e8cba6"/>
	</g>
</g><g>
	<g>
		<path d="M204.372,252.591c-1.86-1.86-4.44-2.93-7.07-2.93c-2.63,0-5.21,1.07-7.07,2.93c-1.86,1.86-2.93,4.43-2.93,7.07    c0,2.63,1.07,5.21,2.93,7.069c1.86,1.86,4.44,2.931,7.07,2.931c2.63,0,5.21-1.07,7.07-2.931c1.86-1.859,2.93-4.439,2.93-7.069    C207.302,257.02,206.232,254.451,204.372,252.591z" data-original="#000000" class="active-path" data-old_color="#e8cba6" fill="#e8cba6"/>
	</g>
</g></g> </svg>
