<?xml version="1.0"?>
<svg xmlns="http://www.w3.org/2000/svg" height="512px" viewBox="0 0 512 512" width="512px"><g><path d="m422 61h-45c-7.988281 0-15-7.476562-15-16v-45h-15c-41.457031 0-75 34.535156-75 76 0 41.355469 33.644531 75 75 75h60c24.8125 0 45 20.1875 45 45 0 5.136719-.890625 10.210938-2.578125 15h-217.207031l-210.609375-210.605469-21.210938 21.210938 189.394531 189.394531h-144.789062c-24.8125 0-45 20.1875-45 45v30c0 24.8125 20.1875 45 45 45h264.785156l180.609375 180.605469 21.210938-21.214844-159.390625-159.390625h159.785156v-120h-22.933594c14.601563-16.332031 22.933594-37.632812 22.933594-60 0-49.625-40.375-90-90-90zm-15 60h-60c-24.8125 0-45-20.1875-45-45 0-19.589844 12.71875-36.789062 30-43.265625v12.265625c0 11.953125 4.597656 23.347656 12.945312 32.078125 8.582032 8.976563 19.964844 13.921875 32.054688 13.921875h45c33.085938 0 60 26.914062 60 60 0 7.339844-1.347656 14.507812-3.871094 21.191406-9.976562-29.722656-38.089844-51.191406-71.128906-51.191406zm-377 165v-30c0-8.269531 6.730469-15 15-15h136v60h-136c-8.269531 0-15-6.730469-15-15zm181 15v-60h8.785156l60 60zm51.214844-60h159.785156v60h-99.785156zm219.785156 60h-30v-60h30zm0 0" data-original="#000000" class="active-path" data-old_color="#e99573" fill="#e99573"/></g> </svg>
